<?xml version="1.0" standalone="no"?>
<!DOCTYPE svg PUBLIC "-//W3C//DTD SVG 1.1//EN" "http://www.w3.org/Graphics/SVG/1.1/DTD/svg11.dtd">
<svg t="1672391345604" class="icon" viewBox="0 0 1024 1024" version="1.1"
  xmlns="http://www.w3.org/2000/svg" p-id="4928" xmlns:xlink="http://www.w3.org/1999/xlink"
  width="200" height="200">
  <path
    d="M884.622222 401.066667c-8.533333 0-17.066667 0-25.6-2.844445l-68.266666 216.177778c42.666667 25.6 71.111111 73.955556 71.111111 125.155556 0 76.8-59.733333 139.377778-136.533334 139.377777h-2.844444c-76.8 0-142.222222-62.577778-142.222222-139.377777 0-36.977778 14.222222-71.111111 36.977777-96.711112l-150.755555-167.822222c-25.6 28.444444-62.577778 45.511111-102.4 45.511111-19.911111 0-39.822222-2.844444-56.888889-11.377777l-73.955556 150.755555c31.288889 28.444444 48.355556 68.266667 48.355556 110.933333 0 76.8-59.733333 139.377778-136.533333 139.377778H142.222222c-76.8 0-142.222222-62.577778-142.222222-139.377778S65.422222 625.777778 142.222222 625.777778c22.755556 0 45.511111 5.688889 65.422222 17.066666l71.111112-147.911111c-36.977778-25.6-59.733333-68.266667-59.733334-113.777777 0-79.644444 65.422222-145.066667 142.222222-145.066667s139.377778 65.422222 139.377778 145.066667c0 25.6-5.688889 51.2-19.911111 71.111111l153.6 170.666666c25.6-17.066667 54.044444-28.444444 82.488889-28.444444 14.222222 0 28.444444 2.844444 42.666667 5.688889l68.266666-210.488889c-51.2-22.755556-91.022222-73.955556-91.022222-133.688889 0-79.644444 65.422222-139.377778 142.222222-139.377778s139.377778 65.422222 139.377778 145.066667c5.688889 73.955556-56.888889 139.377778-133.688889 139.377778zM142.222222 651.377778c-62.577778 0-113.777778 51.2-113.777778 113.777778s51.2 110.933333 113.777778 110.933333 110.933333-48.355556 110.933334-110.933333-48.355556-113.777778-110.933334-113.777778z m221.866667-386.844445c-62.577778 0-113.777778 51.2-113.777778 113.777778s51.2 110.933333 113.777778 110.933333 110.933333-48.355556 110.933333-110.933333-48.355556-113.777778-110.933333-113.777778z m406.755555 372.622223l-17.066666-5.688889v-2.844445c-11.377778-2.844444-22.755556-5.688889-34.133334-5.688889-62.577778 0-113.777778 51.2-113.777777 113.777778s51.2 110.933333 113.777777 110.933333 110.933333-48.355556 110.933334-110.933333c0-39.822222-22.755556-79.644444-59.733334-99.555555z m113.777778-492.088889c-62.577778 0-113.777778 48.355556-113.777778 110.933333s51.2 113.777778 113.777778 113.777778S995.555556 321.422222 995.555556 258.844444s-48.355556-113.777778-110.933334-113.777777z m14.222222 68.266666c-14.222222 0-28.444444 8.533333-36.977777 19.911111-5.688889 5.688889-14.222222 8.533333-19.911111 2.844445s-8.533333-14.222222-2.844445-19.911111c14.222222-19.911111 36.977778-34.133333 62.577778-34.133334 8.533333 0 14.222222 5.688889 14.222222 14.222223s-8.533333 17.066667-17.066667 17.066666z"
    fill="current" p-id="4929"></path>
</svg>