<?xml version="1.0" standalone="no"?>
<!DOCTYPE svg PUBLIC "-//W3C//DTD SVG 1.1//EN" "http://www.w3.org/Graphics/SVG/1.1/DTD/svg11.dtd">
<svg t="1672386136228" class="icon" viewBox="0 0 1024 1024" version="1.1"
  xmlns="http://www.w3.org/2000/svg" p-id="3819" xmlns:xlink="http://www.w3.org/1999/xlink"
  width="200" height="200">
  <path
    d="M558.933333 535.466667a45.866667 45.866667 0 0 0-6.4-23.466667h-80a42.666667 42.666667 0 0 0-6.4 23.466667A46.08 46.08 0 0 0 512 583.68a47.573333 47.573333 0 0 0 46.933333-48.213333z"
    p-id="3820"></path>
  <path
    d="M605.013333 535.466667a93.013333 93.013333 0 1 1-185.813333 0 83.413333 83.413333 0 0 1 3.2-23.466667H138.026667v262.826667a94.933333 94.933333 0 0 0 1.066666 10.88v41.6a42.666667 42.666667 0 0 0 42.666667 42.666666h661.333333a42.666667 42.666667 0 0 0 42.666667-42.666666V512H601.813333a88.746667 88.746667 0 0 1 3.2 23.466667zM884.906667 334.72v-42.666667a42.666667 42.666667 0 0 0-42.666667-42.666666h-189.866667v-64a32 32 0 0 0-32-32h-217.6a32 32 0 0 0-32 32v64H181.76a42.666667 42.666667 0 0 0-42.666667 42.666666v173.013334h746.666667v-119.68a94.933333 94.933333 0 0 0-0.853333-10.666667z m-277.333334-85.333333h-189.653333v-26.026667a21.333333 21.333333 0 0 1 21.333333-21.333333h146.133334a21.333333 21.333333 0 0 1 21.333333 21.333333z"
    p-id="3821"></path>
</svg>